<?xml version="1.0" encoding="utf-8"?>
<!-- Generator: Adobe Illustrator 16.0.0, SVG Export Plug-In . SVG Version: 6.00 Build 0)  -->
<!DOCTYPE svg PUBLIC "-//W3C//DTD SVG 1.1//EN" "http://www.w3.org/Graphics/SVG/1.1/DTD/svg11.dtd">
<svg version="1.1" id="Layer_1" xmlns="http://www.w3.org/2000/svg" xmlns:xlink="http://www.w3.org/1999/xlink" x="0px" y="0px"
	 width="100px" height="100px" viewBox="0 0 100 100" enable-background="new 0 0 100 100" xml:space="preserve">
<g>
	<path fill="#929292" d="M50.021,0.475c27.322,0,49.438,22.217,49.438,49.563c0,27.431-22.115,49.647-49.438,49.647
		c-27.274,0-49.442-22.217-49.442-49.647C0.58,22.691,22.747,0.475,50.021,0.475z"/>
	<path fill="#FFFFFF" d="M74.066,22.955H25.974c-1.646,0-2.954,1.349-2.954,2.979V74.19c0,1.637,1.308,2.995,2.954,2.995h25.958
		V56.179h-7.112v-8.187h7.022V41.94c0-6.987,4.318-10.803,10.485-10.803c2.088,0,4.184,0.117,6.257,0.352v7.326h-4.311
		c-3.382,0-4.005,1.578-4.005,3.956v5.221h8.069l-1.019,8.187h-7.044v21.007h13.791c1.628,0,2.951-1.358,2.951-2.995V25.934
		C77.018,24.304,75.694,22.955,74.066,22.955z"/>
</g>
</svg>
