<?xml version="1.0" encoding="utf-8"?>
<!-- Generator: Adobe Illustrator 16.0.0, SVG Export Plug-In . SVG Version: 6.00 Build 0)  -->
<!DOCTYPE svg PUBLIC "-//W3C//DTD SVG 1.1//EN" "http://www.w3.org/Graphics/SVG/1.1/DTD/svg11.dtd">
<svg version="1.1" id="Layer_1" xmlns="http://www.w3.org/2000/svg" xmlns:xlink="http://www.w3.org/1999/xlink" x="0px" y="0px"
	 width="100px" height="100px" viewBox="0 0 100 100" enable-background="new 0 0 100 100" xml:space="preserve">
<g>
	<g>
		<ellipse fill="#929292" cx="49.938" cy="49.937" rx="49.562" ry="49.313"/>
		<g>
			<path fill-rule="evenodd" clip-rule="evenodd" fill="#FFFFFF" d="M49.938,23.006c-15.33,0.014-27.744,12.389-27.729,27.64
				c0.011,11.88,7.656,22.42,18.982,26.175c1.388,0.255,1.89-0.604,1.89-1.323c0-0.719,0-2.842,0-5.14
				c-7.72,1.658-9.33-3.261-9.33-3.261c-1.259-3.191-3.079-4.05-3.079-4.05c-2.52-1.705,0.187-1.67,0.187-1.67
				c1.783,0.242,3.354,1.291,4.256,2.843c2.473,4.223,6.496,3.005,8.082,2.32c0.118-1.402,0.744-2.714,1.761-3.69
				c-6.169-0.696-12.653-3.074-12.653-13.656c-0.039-2.744,0.989-5.396,2.869-7.403c-0.855-2.38-0.76-4.998,0.268-7.309
				c0,0,2.332-0.744,7.627,2.83c4.55-1.237,9.351-1.237,13.9,0c5.306-3.574,7.627-2.83,7.627-2.83
				c1.027,2.312,1.124,4.929,0.269,7.309c1.877,2.009,2.899,4.66,2.856,7.403c0,10.617-6.483,12.948-12.664,13.633
				c1.335,1.358,2.019,3.223,1.877,5.117c0,3.69,0,6.661,0,7.576c0,0.731,0.502,1.591,1.913,1.324
				c14.543-4.82,22.405-20.458,17.56-34.927C72.629,30.631,62.012,23.021,50.054,23.03L49.938,23.006z"/>
			<path fill="#FFFFFF" d="M32.69,62.653c0,0.141-0.268,0.174-0.467,0.082c-0.198-0.094-0.314-0.279-0.256-0.417
				c0.058-0.141,0.28-0.176,0.478-0.082C32.644,62.329,32.76,62.516,32.69,62.653z"/>
			<path fill="#FFFFFF" d="M33.822,63.895c-0.128,0.128-0.397,0.07-0.572-0.127c-0.168-0.141-0.204-0.386-0.081-0.568
				c0.14-0.127,0.385-0.069,0.571,0.127C33.926,63.523,33.961,63.779,33.822,63.895z"/>
			<path fill="#FFFFFF" d="M34.918,65.498c-0.175,0.115-0.455,0-0.619-0.246c-0.163-0.242-0.175-0.545,0-0.661
				c0.176-0.115,0.443,0,0.619,0.233C35.093,65.056,35.093,65.368,34.918,65.498z"/>
			<path fill="#FFFFFF" d="M36.411,67.028c-0.152,0.162-0.479,0.116-0.711-0.104c-0.233-0.222-0.315-0.546-0.151-0.709
				c0.163-0.163,0.478-0.115,0.711,0.104C36.492,66.541,36.574,66.865,36.411,67.028z"/>
			<path fill="#FFFFFF" d="M38.486,67.922c-0.07,0.209-0.385,0.313-0.7,0.221c-0.315-0.094-0.513-0.349-0.455-0.569
				c0.059-0.22,0.385-0.313,0.7-0.22C38.347,67.446,38.544,67.701,38.486,67.922z"/>
			<path fill="#FFFFFF" d="M40.749,68.084c0,0.232-0.257,0.418-0.583,0.418c-0.327,0-0.606-0.174-0.606-0.395
				s0.256-0.419,0.595-0.431C40.492,67.667,40.749,67.863,40.749,68.084L40.749,68.084z"/>
			<path fill="#FFFFFF" d="M42.871,67.726c0,0.219-0.198,0.451-0.525,0.509s-0.618-0.07-0.653-0.29
				c-0.035-0.219,0.187-0.465,0.513-0.522C42.533,67.364,42.824,67.504,42.871,67.726z"/>
		</g>
	</g>
</g>
</svg>
