<?xml version="1.0" encoding="utf-8"?>
<!-- Generator: Adobe Illustrator 16.0.0, SVG Export Plug-In . SVG Version: 6.00 Build 0)  -->
<!DOCTYPE svg PUBLIC "-//W3C//DTD SVG 1.1//EN" "http://www.w3.org/Graphics/SVG/1.1/DTD/svg11.dtd">
<svg version="1.1" id="Layer_1" xmlns="http://www.w3.org/2000/svg" xmlns:xlink="http://www.w3.org/1999/xlink" x="0px" y="0px"
	 width="100px" height="100px" viewBox="0 0 100 100" enable-background="new 0 0 100 100" xml:space="preserve">
<g>
	<ellipse fill="#929292" cx="50.25" cy="50" rx="49.25" ry="49.333"/>
	<g>
		<path fill="#FFFFFF" d="M22.682,50.023c-0.348-9.054,7.567-17.412,16.617-17.528c4.601-0.271,9.122,1.285,12.586,4.329
			c-1.426,1.568-2.886,3.135-4.439,4.643c-3.083-1.868-6.779-3.285-10.36-2.02c-5.76,2.062-8.762,8.41-6.704,14.18
			c2.058,5.771,8.395,8.776,14.155,6.715l0,0c2.844-1.186,4.958-3.654,5.69-6.651c-3.35-0.058-6.698,0-10.047-0.116
			c0-1.997,0-3.981,0-5.977c5.574,0,11.171,0,16.757,0c0.337,4.875-0.383,10.111-3.545,14.034
			c-4.347,5.594-12.366,7.243-18.902,5.048c-7.069-2.441-11.812-9.108-11.808-16.599"/>
		<path fill="#FFFFFF" d="M67.818,42.455h5.028v5.014h5.008v4.993h-5.008v5.024h-4.982c0-1.681,0-3.342,0-5.014h-5.007v-4.991h5.007
			c0-1.671,0-3.343,0-5.015"/>
	</g>
</g>
</svg>
