<?xml version="1.0" encoding="utf-8"?>
<!-- Generator: Adobe Illustrator 16.0.0, SVG Export Plug-In . SVG Version: 6.00 Build 0)  -->
<!DOCTYPE svg PUBLIC "-//W3C//DTD SVG 1.1//EN" "http://www.w3.org/Graphics/SVG/1.1/DTD/svg11.dtd">
<svg version="1.1" id="Layer_1" xmlns="http://www.w3.org/2000/svg" xmlns:xlink="http://www.w3.org/1999/xlink" x="0px" y="0px"
	 width="100px" height="100px" viewBox="0 0 100 100" enable-background="new 0 0 100 100" xml:space="preserve">
<g>
	<path fill="#929292" d="M50.181,0.702c27.255,0,49.309,22.171,49.309,49.518c0,27.31-22.054,49.475-49.309,49.475
		c-27.321,0-49.45-22.165-49.45-49.475C0.731,22.873,22.86,0.702,50.181,0.702z"/>
	<path fill="#FFFFFF" d="M50.181,27.467c7.333,0,8.186,0,11.127,0.157c1.783,0.064,3.544,0.338,5.199,0.975
		c2.363,0.904,4.257,2.822,5.134,5.246c0.742,1.651,0.995,3.392,0.995,5.171c0.155,2.921,0.208,3.79,0.208,11.203
		c0,7.391,0,8.246-0.208,11.154c0,1.793-0.253,3.537-0.995,5.167c-0.877,2.42-2.771,4.313-5.134,5.253
		c-1.655,0.626-3.416,0.982-5.199,0.982c-2.941,0.128-3.795,0.128-11.127,0.128c-7.458,0-8.282,0-11.202-0.128
		c-1.745,0-3.542-0.356-5.163-0.982c-2.338-0.939-4.211-2.833-5.133-5.253c-0.683-1.63-0.95-3.374-0.95-5.167
		c-0.156-2.908-0.23-3.763-0.23-11.154c0-7.413,0-8.282,0.23-11.203c0-1.78,0.267-3.52,0.95-5.222
		c0.922-2.373,2.794-4.22,5.133-5.146c1.621-0.569,3.418-0.96,5.163-0.96c2.92-0.103,3.745-0.167,11.202-0.167 M50.181,22.535
		c-7.606,0-8.535,0-11.447,0.182c-2.244,0.039-4.569,0.466-6.715,1.284c-3.713,1.417-6.729,4.389-8.157,8.118
		c-0.802,2.196-1.226,4.456-1.256,6.791c-0.119,2.907-0.148,3.833-0.148,11.431c0,7.473,0,8.438,0.148,11.345
		c0.105,2.293,0.58,4.577,1.352,6.705c1.45,3.716,4.368,6.619,8.186,8.1c2.119,0.833,4.464,1.253,6.686,1.253
		c2.95,0.157,3.893,0.206,11.351,0.206c7.563,0,8.46,0,11.506-0.206c2.243,0,4.51-0.42,6.693-1.253
		c3.744-1.48,6.774-4.384,8.149-8.1c0.794-2.186,1.224-4.498,1.224-6.805c0.172-2.911,0.224-3.886,0.224-11.367
		c0-7.569,0-8.505-0.224-11.428c0-2.338-0.43-4.609-1.224-6.765c-1.375-3.755-4.405-6.663-8.149-8.14
		c-2.184-0.804-4.45-1.206-6.693-1.277c-3.046-0.139-3.943-0.193-11.506-0.193V22.535z"/>
	<path fill="#FFFFFF" d="M50.181,35.962c-7.853,0-14.219,6.349-14.219,14.257c0,7.819,6.366,14.171,14.219,14.171
		c7.762,0,14.144-6.353,14.144-14.171C64.325,42.312,57.943,35.962,50.181,35.962L50.181,35.962z M50.181,59.454
		c-5.087,0-9.277-4.21-9.277-9.235c0-5.075,4.19-9.257,9.277-9.257c5.096,0,9.167,4.182,9.167,9.257l0,0
		C59.348,55.244,55.277,59.454,50.181,59.454z"/>
	<path fill="#FFFFFF" d="M64.905,32.091c1.87,0,3.319,1.499,3.319,3.285c0,1.861-1.449,3.392-3.319,3.392
		c-1.813,0-3.353-1.531-3.353-3.392C61.553,33.589,63.092,32.091,64.905,32.091z"/>
</g>
</svg>
