<?xml version="1.0" encoding="utf-8"?>
<!-- Generator: Adobe Illustrator 16.0.0, SVG Export Plug-In . SVG Version: 6.00 Build 0)  -->
<!DOCTYPE svg PUBLIC "-//W3C//DTD SVG 1.1//EN" "http://www.w3.org/Graphics/SVG/1.1/DTD/svg11.dtd">
<svg version="1.1" id="Layer_1" xmlns="http://www.w3.org/2000/svg" xmlns:xlink="http://www.w3.org/1999/xlink" x="0px" y="0px"
	 width="100px" height="100px" viewBox="0 0 100 100" enable-background="new 0 0 100 100" xml:space="preserve">
<g>
	<g>
		<path fill="#929292" d="M50.038,0.646c27.323,0,49.483,22.157,49.483,49.455c0,27.349-22.16,49.521-49.483,49.521
			c-27.336,0-49.482-22.172-49.482-49.521C0.556,22.803,22.702,0.646,50.038,0.646z"/>
		<g>
			<path fill="#FFFFFF" d="M23.045,40.62h11.498v36.926H23.045V40.62z M28.782,22.252c3.679,0,6.646,3.046,6.646,6.683
				c0,3.667-2.966,6.632-6.646,6.632c-3.689,0-6.662-2.966-6.662-6.632C22.12,25.298,25.093,22.252,28.782,22.252L28.782,22.252"/>
			<path fill="#FFFFFF" d="M41.716,40.62h11v5.075h0.243c2.212-3.832,6.404-6.154,10.862-5.933c11.615,0,13.805,7.621,13.805,17.523
				v20.261H66.1V59.627c0-4.33-0.054-9.791-5.915-9.791c-5.939,0-6.922,4.651-6.922,9.466v18.244H41.758L41.716,40.62z"/>
		</g>
	</g>
</g>
</svg>
